<svg id="visual" viewBox="0 0 900 600" width="900" height="600" xmlns="http://www.w3.org/2000/svg" xmlns:xlink="http://www.w3.org/1999/xlink" version="1.1"><path d="M0 427L21.5 437.2C43 447.3 86 467.7 128.8 473C171.7 478.3 214.3 468.7 257.2 468.7C300 468.7 343 478.3 385.8 488.5C428.7 498.7 471.3 509.3 514.2 500.7C557 492 600 464 642.8 463.8C685.7 463.7 728.3 491.3 771.2 499.8C814 508.3 857 497.7 878.5 492.3L900 487L900 601L878.5 601C857 601 814 601 771.2 601C728.3 601 685.7 601 642.8 601C600 601 557 601 514.2 601C471.3 601 428.7 601 385.8 601C343 601 300 601 257.2 601C214.3 601 171.7 601 128.8 601C86 601 43 601 21.5 601L0 601Z" fill="#14532d" fill-opacity="0.5" stroke-linecap="round" stroke-linejoin="miter"></path></svg>