<svg id="visual" viewBox="0 0 900 600" width="900" height="600" xmlns="http://www.w3.org/2000/svg" xmlns:xlink="http://www.w3.org/1999/xlink" version="1.1"><path d="M0 510L21.5 504C43 498 86 486 128.8 479.2C171.7 472.3 214.3 470.7 257.2 478.3C300 486 343 503 385.8 502.8C428.7 502.7 471.3 485.3 514.2 472.7C557 460 600 452 642.8 458C685.7 464 728.3 484 771.2 484.8C814 485.7 857 467.3 878.5 458.2L900 449L900 601L878.5 601C857 601 814 601 771.2 601C728.3 601 685.7 601 642.8 601C600 601 557 601 514.2 601C471.3 601 428.7 601 385.8 601C343 601 300 601 257.2 601C214.3 601 171.7 601 128.8 601C86 601 43 601 21.5 601L0 601Z" fill="#78716c" fill-opacity="0.5" stroke-linecap="round" stroke-linejoin="miter"></path></svg>